<svg xmlns="http://www.w3.org/2000/svg" viewBox="0 0 720 360" width="720" height="360" font-family="ui-sans-serif,Helvetica" font-size="12">
<rect width="720" height="360" fill="#ffffff"/>
<text x="360.0" y="22" text-anchor="middle" font-weight="bold">Wall-clock time per benchmark (lower is better)</text>
<line x1="100" y1="40" x2="100" y2="300" stroke="#333"/>
<line x1="100" y1="300" x2="680" y2="300" stroke="#333"/>
<line x1="100" y1="300.0" x2="680" y2="300.0" stroke="#e5e7eb"/>
<text x="92" y="304.0" text-anchor="end" fill="#444">0.0s</text>
<line x1="100" y1="248.0" x2="680" y2="248.0" stroke="#e5e7eb"/>
<text x="92" y="252.0" text-anchor="end" fill="#444">9.5s</text>
<line x1="100" y1="196.0" x2="680" y2="196.0" stroke="#e5e7eb"/>
<text x="92" y="200.0" text-anchor="end" fill="#444">19.0s</text>
<line x1="100" y1="144.0" x2="680" y2="144.0" stroke="#e5e7eb"/>
<text x="92" y="148.0" text-anchor="end" fill="#444">28.5s</text>
<line x1="100" y1="92.0" x2="680" y2="92.0" stroke="#e5e7eb"/>
<text x="92" y="96.0" text-anchor="end" fill="#444">38.1s</text>
<line x1="100" y1="40.0" x2="680" y2="40.0" stroke="#e5e7eb"/>
<text x="92" y="44.0" text-anchor="end" fill="#444">47.6s</text>
<rect x="124.16666666666667" y="275.07961030362264" width="43.5" height="24.92038969637734" fill="#2563eb" />
<text x="145.91666666666669" y="271.07961030362264" text-anchor="middle">4.56</text>
<rect x="317.50000000000006" y="255.67886832508327" width="43.5" height="44.321131674916714" fill="#2563eb" />
<text x="339.25000000000006" y="251.67886832508327" text-anchor="middle">8.11</text>
<rect x="510.83333333333337" y="73.91304347826085" width="43.5" height="226.08695652173915" fill="#2563eb" />
<text x="532.5833333333334" y="69.91304347826085" text-anchor="middle">41.37</text>
<rect x="172.5" y="277.2109594223918" width="43.5" height="22.789040577608226" fill="#059669" />
<text x="194.25" y="273.2109594223918" text-anchor="middle">4.17</text>
<rect x="365.83333333333337" y="259.1764668789608" width="43.5" height="40.8235331210392" fill="#059669" />
<text x="387.58333333333337" y="255.1764668789608" text-anchor="middle">7.47</text>
<rect x="559.1666666666667" y="80.03384094754651" width="43.5" height="219.9661590524535" fill="#059669" />
<text x="580.9166666666667" y="76.03384094754651" text-anchor="middle">40.25</text>
<rect x="220.83333333333334" y="299.672100135574" width="43.5" height="0.32789986442601765" fill="#dc2626" />
<text x="242.58333333333334" y="295.672100135574" text-anchor="middle">0.06</text>
<rect x="414.16666666666674" y="299.6174501581696" width="43.5" height="0.382549841830354" fill="#dc2626" />
<text x="435.91666666666674" y="295.6174501581696" text-anchor="middle">0.07</text>
<rect x="607.5" y="298.36050067786994" width="43.5" height="1.6394993221300882" fill="#dc2626" />
<text x="629.25" y="294.36050067786994" text-anchor="middle">0.30</text>
<text x="196.66666666666669" y="318" text-anchor="middle">dhrystone</text>
<text x="390.0" y="318" text-anchor="middle">coremark</text>
<text x="583.3333333333334" y="318" text-anchor="middle">microbench</text>
<rect x="100" y="326" width="12" height="12" fill="#2563eb" />
<text x="118" y="336" >real_s</text>
<rect x="210" y="326" width="12" height="12" fill="#059669" />
<text x="228" y="336" >user_s</text>
<rect x="320" y="326" width="12" height="12" fill="#dc2626" />
<text x="338" y="336" >sys_s</text>
</svg>