<svg xmlns="http://www.w3.org/2000/svg" viewBox="0 0 560 320" width="560" height="320" font-family="ui-sans-serif,Helvetica" font-size="12">
<rect width="560" height="320" fill="#ffffff"/>
<text x="280.0" y="22" text-anchor="middle" font-weight="bold">Peak RSS per benchmark (MiB)</text>
<line x1="100" y1="40" x2="100" y2="260" stroke="#333"/>
<line x1="100" y1="260" x2="520" y2="260" stroke="#333"/>
<line x1="100" y1="260.0" x2="520" y2="260.0" stroke="#e5e7eb"/>
<text x="92" y="264.0" text-anchor="end" fill="#444">0</text>
<line x1="100" y1="216.0" x2="520" y2="216.0" stroke="#e5e7eb"/>
<text x="92" y="220.0" text-anchor="end" fill="#444">10</text>
<line x1="100" y1="172.0" x2="520" y2="172.0" stroke="#e5e7eb"/>
<text x="92" y="176.0" text-anchor="end" fill="#444">19</text>
<line x1="100" y1="128.0" x2="520" y2="128.0" stroke="#e5e7eb"/>
<text x="92" y="132.0" text-anchor="end" fill="#444">29</text>
<line x1="100" y1="84.0" x2="520" y2="84.0" stroke="#e5e7eb"/>
<text x="92" y="88.0" text-anchor="end" fill="#444">39</text>
<line x1="100" y1="40.0" x2="520" y2="40.0" stroke="#e5e7eb"/>
<text x="92" y="44.0" text-anchor="end" fill="#444">48</text>
<rect x="128.0" y="76.80884063590537" width="84.0" height="183.19115936409463" fill="#059669" />
<text x="170.0" y="72.80884063590537" text-anchor="middle">40.3</text>
<text x="170.0" y="278" text-anchor="middle">dhrystone</text>
<rect x="268.0" y="76.66666666666666" width="84.0" height="183.33333333333334" fill="#059669" />
<text x="310.0" y="72.66666666666666" text-anchor="middle">40.3</text>
<text x="310.0" y="278" text-anchor="middle">coremark</text>
<rect x="408.0" y="77.02210158976345" width="84.0" height="182.97789841023655" fill="#059669" />
<text x="450.0" y="73.02210158976345" text-anchor="middle">40.2</text>
<text x="450.0" y="278" text-anchor="middle">microbench</text>
</svg>