<svg xmlns="http://www.w3.org/2000/svg" viewBox="0 0 640 400" width="640" height="400" font-family="ui-sans-serif,Helvetica" font-size="12">
<rect width="640" height="400" fill="#ffffff"/>
<text x="320.0" y="22" text-anchor="middle" font-weight="bold">CPU self-time — coremark (bucketed)</text>
<path d="M 180 200.0 L 180.00 50.00 A 150 150 0 0 1 210.05 346.96 Z" fill="#2563eb" stroke="white" stroke-width="1.5"/>
<rect x="360" y="48" width="14" height="14" fill="#2563eb" />
<text x="382" y="60" >CPU main loop — 46.8%</text>
<path d="M 180 200.0 L 210.05 346.96 A 150 150 0 0 1 31.73 177.29 Z" fill="#059669" stroke="white" stroke-width="1.5"/>
<rect x="360" y="74" width="14" height="14" fill="#059669" />
<text x="382" y="86" >Other — 30.6%</text>
<path d="M 180 200.0 L 31.73 177.29 A 150 150 0 0 1 78.73 89.35 Z" fill="#dc2626" stroke="white" stroke-width="1.5"/>
<rect x="360" y="100" width="14" height="14" fill="#dc2626" />
<text x="382" y="112" >MMU::access_bus — 10.8%</text>
<path d="M 180 200.0 L 78.73 89.35 A 150 150 0 0 1 122.49 61.46 Z" fill="#d97706" stroke="white" stroke-width="1.5"/>
<rect x="360" y="126" width="14" height="14" fill="#d97706" />
<text x="382" y="138" >Mtimer::check_timer — 5.5%</text>
<path d="M 180 200.0 L 122.49 61.46 A 150 150 0 0 1 155.52 52.01 Z" fill="#7c3aed" stroke="white" stroke-width="1.5"/>
<rect x="360" y="152" width="14" height="14" fill="#7c3aed" />
<text x="382" y="164" >Mtimer::tick — 3.7%</text>
<path d="M 180 200.0 L 155.52 52.01 A 150 150 0 0 1 179.25 50.00 Z" fill="#0891b2" stroke="white" stroke-width="1.5"/>
<rect x="360" y="178" width="14" height="14" fill="#0891b2" />
<text x="382" y="190" >PLIC evaluate+tick — 2.5%</text>
<path d="M 180 200.0 L 179.25 50.00 A 150 150 0 0 1 180.00 50.00 Z" fill="#db2777" stroke="white" stroke-width="1.5"/>
<rect x="360" y="204" width="14" height="14" fill="#db2777" />
<text x="382" y="216" >Bus Mutex lock/unlock — 0.1%</text>
</svg>