<svg xmlns="http://www.w3.org/2000/svg" viewBox="0 0 640 400" width="640" height="400" font-family="ui-sans-serif,Helvetica" font-size="12">
<rect width="640" height="400" fill="#ffffff"/>
<text x="320.0" y="22" text-anchor="middle" font-weight="bold">CPU self-time — dhrystone (bucketed)</text>
<path d="M 180 200.0 L 180.00 50.00 A 150 150 0 0 1 264.84 323.71 Z" fill="#2563eb" stroke="white" stroke-width="1.5"/>
<rect x="360" y="48" width="14" height="14" fill="#2563eb" />
<text x="382" y="60" >CPU main loop — 40.4%</text>
<path d="M 180 200.0 L 264.84 323.71 A 150 150 0 0 1 31.40 179.55 Z" fill="#059669" stroke="white" stroke-width="1.5"/>
<rect x="360" y="74" width="14" height="14" fill="#059669" />
<text x="382" y="86" >Other — 36.7%</text>
<path d="M 180 200.0 L 31.40 179.55 A 150 150 0 0 1 89.15 80.64 Z" fill="#dc2626" stroke="white" stroke-width="1.5"/>
<rect x="360" y="100" width="14" height="14" fill="#dc2626" />
<text x="382" y="112" >MMU::access_bus — 12.5%</text>
<path d="M 180 200.0 L 89.15 80.64 A 150 150 0 0 1 131.30 58.13 Z" fill="#d97706" stroke="white" stroke-width="1.5"/>
<rect x="360" y="126" width="14" height="14" fill="#d97706" />
<text x="382" y="138" >Mtimer::check_timer — 5.1%</text>
<path d="M 180 200.0 L 131.30 58.13 A 150 150 0 0 1 156.23 51.90 Z" fill="#7c3aed" stroke="white" stroke-width="1.5"/>
<rect x="360" y="152" width="14" height="14" fill="#7c3aed" />
<text x="382" y="164" >Mtimer::tick — 2.7%</text>
<path d="M 180 200.0 L 156.23 51.90 A 150 150 0 0 1 180.00 50.00 Z" fill="#0891b2" stroke="white" stroke-width="1.5"/>
<rect x="360" y="178" width="14" height="14" fill="#0891b2" />
<text x="382" y="190" >PLIC evaluate+tick — 2.5%</text>
</svg>