<svg xmlns="http://www.w3.org/2000/svg" viewBox="0 0 640 400" width="640" height="400" font-family="ui-sans-serif,Helvetica" font-size="12">
<rect width="640" height="400" fill="#ffffff"/>
<text x="320.0" y="22" text-anchor="middle" font-weight="bold">CPU self-time — coremark (bucketed)</text>
<path d="M 180 200.0 L 180.00 50.00 A 150 150 0 0 1 309.58 275.56 Z" fill="#2563eb" stroke="white" stroke-width="1.5"/>
<rect x="360" y="48" width="14" height="14" fill="#2563eb" />
<text x="382" y="60" >Bus Mutex lock/unlock — 33.4%</text>
<path d="M 180 200.0 L 309.58 275.56 A 150 150 0 0 1 62.87 293.70 Z" fill="#059669" stroke="white" stroke-width="1.5"/>
<rect x="360" y="74" width="14" height="14" fill="#059669" />
<text x="382" y="86" >CPU main loop — 30.9%</text>
<path d="M 180 200.0 L 62.87 293.70 A 150 150 0 0 1 36.54 156.20 Z" fill="#dc2626" stroke="white" stroke-width="1.5"/>
<rect x="360" y="100" width="14" height="14" fill="#dc2626" />
<text x="382" y="112" >Other — 15.5%</text>
<path d="M 180 200.0 L 36.54 156.20 A 150 150 0 0 1 73.17 94.71 Z" fill="#d97706" stroke="white" stroke-width="1.5"/>
<rect x="360" y="126" width="14" height="14" fill="#d97706" />
<text x="382" y="138" >MMU::access_bus — 7.7%</text>
<path d="M 180 200.0 L 73.17 94.71 A 150 150 0 0 1 131.47 58.07 Z" fill="#7c3aed" stroke="white" stroke-width="1.5"/>
<rect x="360" y="152" width="14" height="14" fill="#7c3aed" />
<text x="382" y="164" >MMU::checked_read — 7.4%</text>
<path d="M 180 200.0 L 131.47 58.07 A 150 150 0 0 1 155.49 52.02 Z" fill="#0891b2" stroke="white" stroke-width="1.5"/>
<rect x="360" y="178" width="14" height="14" fill="#0891b2" />
<text x="382" y="190" >Mtimer::check_timer — 2.6%</text>
<path d="M 180 200.0 L 155.49 52.02 A 150 150 0 0 1 168.12 50.47 Z" fill="#db2777" stroke="white" stroke-width="1.5"/>
<rect x="360" y="204" width="14" height="14" fill="#db2777" />
<text x="382" y="216" >PLIC evaluate+tick — 1.4%</text>
<path d="M 180 200.0 L 168.12 50.47 A 150 150 0 0 1 180.00 50.00 Z" fill="#4b5563" stroke="white" stroke-width="1.5"/>
<rect x="360" y="230" width="14" height="14" fill="#4b5563" />
<text x="382" y="242" >Mtimer::tick — 1.3%</text>
</svg>