<svg xmlns="http://www.w3.org/2000/svg" viewBox="0 0 640 400" width="640" height="400" font-family="ui-sans-serif,Helvetica" font-size="12">
<rect width="640" height="400" fill="#ffffff"/>
<text x="320.0" y="22" text-anchor="middle" font-weight="bold">CPU self-time — microbench (bucketed)</text>
<path d="M 180 200.0 L 180.00 50.00 A 150 150 0 0 1 228.66 341.89 Z" fill="#2563eb" stroke="white" stroke-width="1.5"/>
<rect x="360" y="48" width="14" height="14" fill="#2563eb" />
<text x="382" y="60" >CPU main loop — 44.7%</text>
<path d="M 180 200.0 L 228.66 341.89 A 150 150 0 0 1 30.30 190.54 Z" fill="#059669" stroke="white" stroke-width="1.5"/>
<rect x="360" y="74" width="14" height="14" fill="#059669" />
<text x="382" y="86" >Other — 31.3%</text>
<path d="M 180 200.0 L 30.30 190.54 A 150 150 0 0 1 75.92 91.99 Z" fill="#dc2626" stroke="white" stroke-width="1.5"/>
<rect x="360" y="100" width="14" height="14" fill="#dc2626" />
<text x="382" y="112" >MMU::access_bus — 11.8%</text>
<path d="M 180 200.0 L 75.92 91.99 A 150 150 0 0 1 121.37 61.93 Z" fill="#d97706" stroke="white" stroke-width="1.5"/>
<rect x="360" y="126" width="14" height="14" fill="#d97706" />
<text x="382" y="138" >Mtimer::check_timer — 5.8%</text>
<path d="M 180 200.0 L 121.37 61.93 A 150 150 0 0 1 150.95 52.84 Z" fill="#7c3aed" stroke="white" stroke-width="1.5"/>
<rect x="360" y="152" width="14" height="14" fill="#7c3aed" />
<text x="382" y="164" >Mtimer::tick — 3.3%</text>
<path d="M 180 200.0 L 150.95 52.84 A 150 150 0 0 1 178.97 50.00 Z" fill="#0891b2" stroke="white" stroke-width="1.5"/>
<rect x="360" y="178" width="14" height="14" fill="#0891b2" />
<text x="382" y="190" >PLIC evaluate+tick — 3.0%</text>
<path d="M 180 200.0 L 178.97 50.00 A 150 150 0 0 1 180.00 50.00 Z" fill="#db2777" stroke="white" stroke-width="1.5"/>
<rect x="360" y="204" width="14" height="14" fill="#db2777" />
<text x="382" y="216" >Bus Mutex lock/unlock — 0.1%</text>
</svg>